<?xml version="1.0" encoding="UTF-8" standalone="no"?>
<!-- Created with Inkscape (http://www.inkscape.org/) -->

<svg
   width="6.3499999mm"
   height="3.8364584mm"
   viewBox="0 0 6.3499999 3.8364584"
   version="1.1"
   id="svg1"
   xml:space="preserve"
   xmlns:inkscape="http://www.inkscape.org/namespaces/inkscape"
   xmlns:sodipodi="http://sodipodi.sourceforge.net/DTD/sodipodi-0.dtd"
   xmlns="http://www.w3.org/2000/svg"
   xmlns:svg="http://www.w3.org/2000/svg"><sodipodi:namedview
     id="namedview1"
     pagecolor="#ffffff"
     bordercolor="#000000"
     borderopacity="0.25"
     inkscape:showpageshadow="2"
     inkscape:pageopacity="0.0"
     inkscape:pagecheckerboard="0"
     inkscape:deskcolor="#d1d1d1"
     inkscape:document-units="mm" /><defs
     id="defs1" /><g
     inkscape:label="Capa 1"
     inkscape:groupmode="layer"
     id="layer1"
     transform="translate(-132.78089,-150.88125)"><path
       d="m 135.9559,150.88125 a 0.92604167,0.92604167 0 0 1 0.92604,0.92604 0.92604167,0.92604167 0 0 1 -0.92604,0.92604 0.92604167,0.92604167 0 0 1 -0.92605,-0.92604 0.92604167,0.92604167 0 0 1 0.92605,-0.92604 m -1.85209,0.66146 c 0.14817,0 0.28575,0.0397 0.40482,0.11112 -0.0397,0.37836 0.0714,0.75407 0.29897,1.04775 -0.13229,0.254 -0.39687,0.42863 -0.70379,0.42863 a 0.79375,0.79375 0 0 1 -0.79375,-0.79375 0.79375,0.79375 0 0 1 0.79375,-0.79375 m 3.70417,0 a 0.79375,0.79375 0 0 1 0.79375,0.79375 0.79375,0.79375 0 0 1 -0.79375,0.79375 c -0.30692,0 -0.5715,-0.17463 -0.70379,-0.42863 0.22754,-0.29368 0.33866,-0.66939 0.29898,-1.04775 0.11906,-0.0714 0.25664,-0.11112 0.40481,-0.11112 m -3.57188,2.71198 c 0,-0.54769 0.76994,-0.99219 1.7198,-0.99219 0.94985,0 1.71979,0.4445 1.71979,0.99219 v 0.46302 h -3.43959 v -0.46302 m -1.4552,0.46302 v -0.39688 c 0,-0.36777 0.50006,-0.67733 1.17739,-0.76729 -0.1561,0.17992 -0.25135,0.42863 -0.25135,0.70115 v 0.46302 h -0.92604 m 6.35,0 h -0.92605 v -0.46302 c 0,-0.27252 -0.0952,-0.52123 -0.25135,-0.70115 0.67733,0.09 1.1774,0.39952 1.1774,0.76729 z"
       id="path1-7"
       style="fill:#ffffff;fill-opacity:1;stroke-width:0.264583"
       inkscape:export-filename="account-group.svg"
       inkscape:export-xdpi="96"
       inkscape:export-ydpi="96" /></g></svg>
