<?xml version="1.0" encoding="UTF-8" standalone="no"?>
<!-- Created with Inkscape (http://www.inkscape.org/) -->

<svg
   width="6.3499999mm"
   height="4.7625003mm"
   viewBox="0 0 6.3499999 4.7625003"
   version="1.1"
   id="svg1"
   xml:space="preserve"
   xmlns:inkscape="http://www.inkscape.org/namespaces/inkscape"
   xmlns:sodipodi="http://sodipodi.sourceforge.net/DTD/sodipodi-0.dtd"
   xmlns="http://www.w3.org/2000/svg"
   xmlns:svg="http://www.w3.org/2000/svg"><sodipodi:namedview
     id="namedview1"
     pagecolor="#ffffff"
     bordercolor="#000000"
     borderopacity="0.25"
     inkscape:showpageshadow="2"
     inkscape:pageopacity="0.0"
     inkscape:pagecheckerboard="0"
     inkscape:deskcolor="#d1d1d1"
     inkscape:document-units="mm" /><defs
     id="defs1" /><g
     inkscape:label="Capa 1"
     inkscape:groupmode="layer"
     id="layer1"
     transform="translate(-79.604448,-148.03698)"><path
       d="m 80.133614,148.03698 h 5.29167 c 0.27781,0 0.52917,0.25135 0.52917,0.52917 v 3.70416 c 0,0.27782 -0.25136,0.52917 -0.52917,0.52917 h -5.29167 c -0.27781,0 -0.52916,-0.25135 -0.52916,-0.52917 v -3.70416 c 0,-0.27782 0.25135,-0.52917 0.52916,-0.52917 m 3.175,0.79375 v 0.26458 h 2.11667 v -0.26458 h -2.11667 m 0,0.52917 v 0.26458 h 1.98438 0.13229 v -0.26458 h -2.11667 m 0,0.52916 v 0.26459 h 1.85209 v -0.26459 h -1.85209 m -1.5875,1.03452 c -0.52916,0 -1.5875,0.2884 -1.5875,0.81757 v 0.26458 h 3.175 v -0.26458 c 0,-0.52917 -1.05833,-0.81757 -1.5875,-0.81757 m 0,-2.09285 a 0.79375,0.79375 0 0 0 -0.79375,0.79375 0.79375,0.79375 0 0 0 0.79375,0.79375 0.79375,0.79375 0 0 0 0.79375,-0.79375 0.79375,0.79375 0 0 0 -0.79375,-0.79375 z"
       id="path1-1"
       style="fill:#ffffff;fill-opacity:1;stroke-width:0.264583" /></g></svg>
