<?xml version="1.0" encoding="UTF-8" standalone="no"?>
<!-- Created with Inkscape (http://www.inkscape.org/) -->

<svg
   width="5.1472793mm"
   height="5.2916589mm"
   viewBox="0 0 5.1472793 5.2916589"
   version="1.1"
   id="svg1"
   xml:space="preserve"
   xmlns:inkscape="http://www.inkscape.org/namespaces/inkscape"
   xmlns:sodipodi="http://sodipodi.sourceforge.net/DTD/sodipodi-0.dtd"
   xmlns="http://www.w3.org/2000/svg"
   xmlns:svg="http://www.w3.org/2000/svg"><sodipodi:namedview
     id="namedview1"
     pagecolor="#ffffff"
     bordercolor="#000000"
     borderopacity="0.25"
     inkscape:showpageshadow="2"
     inkscape:pageopacity="0.0"
     inkscape:pagecheckerboard="0"
     inkscape:deskcolor="#d1d1d1"
     inkscape:document-units="mm" /><defs
     id="defs1" /><g
     inkscape:label="Capa 1"
     inkscape:groupmode="layer"
     id="layer1"
     transform="translate(-124.23085,-120.82919)"><path
       d="m 126.80505,124.40106 a 0.92604167,0.92604167 0 0 1 -0.92604,-0.92604 0.92604167,0.92604167 0 0 1 0.92604,-0.92604 0.92604167,0.92604167 0 0 1 0.92604,0.92604 0.92604167,0.92604167 0 0 1 -0.92604,0.92604 m 1.96585,-0.66939 c 0.0106,-0.0847 0.0185,-0.16934 0.0185,-0.25665 0,-0.0873 -0.008,-0.17462 -0.0185,-0.26458 l 0.55828,-0.43127 c 0.0503,-0.0397 0.0635,-0.11113 0.0318,-0.16934 l -0.52917,-0.91546 c -0.0318,-0.0582 -0.10319,-0.082 -0.1614,-0.0582 l -0.65881,0.26458 c -0.13758,-0.10319 -0.28046,-0.19315 -0.44715,-0.25929 l -0.0979,-0.70115 c -0.0106,-0.0635 -0.0661,-0.11112 -0.13229,-0.11112 h -1.05834 c -0.0661,0 -0.1217,0.0476 -0.13229,0.11112 l -0.0979,0.70115 c -0.16669,0.0661 -0.30957,0.1561 -0.44715,0.25929 l -0.65881,-0.26458 c -0.0582,-0.0238 -0.12965,0 -0.1614,0.0582 l -0.52916,0.91546 c -0.0344,0.0582 -0.0185,0.12965 0.0317,0.16934 l 0.55827,0.43127 c -0.0106,0.09 -0.0185,0.17727 -0.0185,0.26458 0,0.0873 0.008,0.17198 0.0185,0.25665 l -0.55827,0.4392 c -0.0503,0.0397 -0.0661,0.11113 -0.0317,0.16934 l 0.52916,0.91546 c 0.0318,0.0582 0.10319,0.0794 0.1614,0.0582 l 0.65881,-0.26722 c 0.13758,0.10583 0.28046,0.19579 0.44715,0.26193 l 0.0979,0.70115 c 0.0106,0.0635 0.0662,0.11112 0.13229,0.11112 h 1.05834 c 0.0661,0 0.12171,-0.0476 0.13229,-0.11112 l 0.0979,-0.70115 c 0.16669,-0.0688 0.30957,-0.1561 0.44715,-0.26193 l 0.65881,0.26722 c 0.0582,0.0212 0.12965,0 0.1614,-0.0582 l 0.52917,-0.91546 c 0.0317,-0.0582 0.0185,-0.12965 -0.0318,-0.16934 z"
       id="path1-4"
       style="fill:#ffffff;fill-opacity:1;stroke-width:0.264583" /></g></svg>
