<?xml version="1.0" encoding="UTF-8" standalone="no"?>
<!-- Created with Inkscape (http://www.inkscape.org/) -->

<svg
   width="5.2916708mm"
   height="5.2916589mm"
   viewBox="0 0 5.2916708 5.2916589"
   version="1.1"
   id="svg1"
   xml:space="preserve"
   xmlns:inkscape="http://www.inkscape.org/namespaces/inkscape"
   xmlns:sodipodi="http://sodipodi.sourceforge.net/DTD/sodipodi-0.dtd"
   xmlns="http://www.w3.org/2000/svg"
   xmlns:svg="http://www.w3.org/2000/svg"><sodipodi:namedview
     id="namedview1"
     pagecolor="#ffffff"
     bordercolor="#000000"
     borderopacity="0.25"
     inkscape:showpageshadow="2"
     inkscape:pageopacity="0.0"
     inkscape:pagecheckerboard="0"
     inkscape:deskcolor="#d1d1d1"
     inkscape:document-units="mm" /><defs
     id="defs1" /><g
     inkscape:label="Capa 1"
     inkscape:groupmode="layer"
     id="layer1"
     transform="translate(-55.831804,-93.464109)"><path
       d="m 60.594303,93.464108 h -4.23333 c -0.14023,0 -0.27517,0.0556 -0.37306,0.1561 -0.10054,0.0979 -0.15611,0.23283 -0.15611,0.37306 v 3.175 c 0,0.14023 0.0556,0.27517 0.15611,0.37307 0.0979,0.10054 0.23283,0.1561 0.37306,0.1561 h 1.05833 l 1.05834,1.05833 1.05833,-1.05833 h 1.05833 c 0.14023,0 0.27517,-0.0556 0.37307,-0.1561 0.0979,-0.10055 0.1561,-0.23284 0.1561,-0.37307 v -3.175 c 0,-0.14023 -0.0556,-0.27516 -0.1561,-0.37306 -0.0979,-0.10054 -0.23284,-0.1561 -0.37307,-0.1561 m -2.6326,1.06891 c 0.14287,-0.0952 0.33073,-0.14287 0.56621,-0.14287 0.24871,0 0.44714,0.0556 0.59002,0.16404 0.14287,0.11113 0.21431,0.25929 0.21431,0.4445 0,0.11642 -0.0397,0.2196 -0.11642,0.3175 -0.0767,0.0952 -0.17727,0.16933 -0.29898,0.2249 -0.0688,0.0397 -0.11377,0.0794 -0.13758,0.12435 -0.0238,0.0476 -0.037,0.10583 -0.037,0.17992 h -0.52917 c 0,-0.13229 0.0265,-0.22225 0.0767,-0.28575 0.0556,-0.0635 0.14552,-0.13759 0.28311,-0.22225 0.0688,-0.037 0.12435,-0.0847 0.16933,-0.14288 0.037,-0.0556 0.0582,-0.12171 0.0582,-0.19579 0,-0.0794 -0.0238,-0.13758 -0.0714,-0.18256 -0.0476,-0.0476 -0.11906,-0.0688 -0.20108,-0.0688 -0.0714,0 -0.12965,0.0185 -0.18257,0.0556 -0.0423,0.037 -0.0688,0.0926 -0.0688,0.16669 h -0.52123 c -0.0132,-0.18257 0.0609,-0.34132 0.20638,-0.43657 m 0.25135,2.10609 v -0.5292 h 0.52917 v 0.52917 z"
       id="path1-53"
       style="fill:#ffffff;fill-opacity:1;stroke-width:0.264583" /></g></svg>
